<svg width="20" height="20" viewBox="0 0 20 20" fill="none" xmlns="http://www.w3.org/2000/svg">
<path d="M6.79081 0.868484L1.74185 7.36C1.41011 7.78653 1.44789 8.39333 1.82997 8.77541L11.099 18.0444C11.481 18.4265 12.0878 18.4643 12.5144 18.1325L19.0059 13.0836C19.3279 12.8331 19.263 12.329 18.888 12.1683L15.4668 10.702C15.2408 10.6052 15.1098 10.367 15.1489 10.1243L16.0691 4.41948C16.1272 4.05892 15.8155 3.74714 15.4549 3.8053L9.75002 4.72544C9.50734 4.76458 9.26916 4.63353 9.17232 4.40759L7.70608 0.986353C7.54538 0.611393 7.04127 0.546472 6.79081 0.868484Z" fill="url(#paint0_linear_488_3445)"/>
<path fill-rule="evenodd" clip-rule="evenodd" d="M15.8617 3.90539C15.751 3.82203 15.6073 3.78052 15.4549 3.8051L9.75006 4.72524C9.50737 4.76438 9.26919 4.63333 9.17236 4.40739L7.70611 0.986154C7.54542 0.611195 7.0413 0.546274 6.79085 0.868286L1.74189 7.3598C1.41015 7.78633 1.44793 8.39313 1.83001 8.77521L6.41097 13.3562L15.8617 3.90539Z" fill="url(#paint1_linear_488_3445)"/>
<path d="M10.5051 8.38752L8.21954 8.38752C7.73629 8.38752 7.34454 8.77927 7.34454 9.26252L7.34454 11.5481C7.34454 12.0313 7.73629 12.4231 8.21954 12.4231H10.5051C10.9883 12.4231 11.3801 12.0313 11.3801 11.5481L11.3801 9.26252C11.3801 8.77927 10.9883 8.38752 10.5051 8.38752Z" fill="url(#paint2_linear_488_3445)" stroke="url(#paint3_linear_488_3445)" stroke-width="0.5" stroke-linejoin="round"/>
<defs>
<linearGradient id="paint0_linear_488_3445" x1="7.5" y1="8" x2="15" y2="16.25" gradientUnits="userSpaceOnUse">
<stop stop-color="#FFB341"/>
<stop offset="1" stop-color="#FFD056"/>
</linearGradient>
<linearGradient id="paint1_linear_488_3445" x1="3.75" y1="3.74997" x2="10" y2="9.99997" gradientUnits="userSpaceOnUse">
<stop stop-color="#FFCA63"/>
<stop offset="1" stop-color="#FFE193"/>
</linearGradient>
<linearGradient id="paint2_linear_488_3445" x1="11.1301" y1="8.63752" x2="7.59454" y2="12.1731" gradientUnits="userSpaceOnUse">
<stop stop-color="#FF8C38"/>
<stop offset="1" stop-color="#FA5825"/>
</linearGradient>
<linearGradient id="paint3_linear_488_3445" x1="11.1301" y1="8.63752" x2="7.59454" y2="12.1731" gradientUnits="userSpaceOnUse">
<stop stop-color="#FFA20F"/>
<stop offset="1" stop-color="#FFE578"/>
</linearGradient>
</defs>
</svg>
