<svg width="24" height="24" viewBox="0 0 24 24" fill="none" xmlns="http://www.w3.org/2000/svg">
<path fill-rule="evenodd" clip-rule="evenodd" d="M20 17V7C20 6.37868 19.4963 5.875 18.875 5.875H5.125C4.50368 5.875 4 6.37868 4 7V17C4 17.6213 4.50368 18.125 5.125 18.125H18.875C19.4963 18.125 20 17.6213 20 17ZM22 17V7C22 5.27411 20.6009 3.875 18.875 3.875H5.125C3.39911 3.875 2 5.27411 2 7V17C2 18.7259 3.39911 20.125 5.125 20.125H18.875C20.6009 20.125 22 18.7259 22 17ZM7.25 13.875C7.25 13.3227 7.69771 12.875 8.25 12.875H15.75C16.3023 12.875 16.75 13.3227 16.75 13.875C16.75 14.4273 16.3023 14.875 15.75 14.875H8.25C7.69771 14.875 7.25 14.4273 7.25 13.875ZM7 9.125C6.44771 9.125 6 9.57272 6 10.125C6 10.6773 6.44771 11.125 7 11.125H8.25C8.80228 11.125 9.25 10.6773 9.25 10.125C9.25 9.57272 8.80228 9.125 8.25 9.125H7ZM10.375 10.125C10.375 9.57272 10.8227 9.125 11.375 9.125H12.625C13.1773 9.125 13.625 9.57272 13.625 10.125C13.625 10.6773 13.1773 11.125 12.625 11.125H11.375C10.8227 11.125 10.375 10.6773 10.375 10.125ZM15.75 9.125C15.1977 9.125 14.75 9.57272 14.75 10.125C14.75 10.6773 15.1977 11.125 15.75 11.125H17C17.5523 11.125 18 10.6773 18 10.125C18 9.57272 17.5523 9.125 17 9.125H15.75Z" fill="#35394D"/>
</svg>
