<svg width="20" height="20" viewBox="0 0 20 20" fill="none" xmlns="http://www.w3.org/2000/svg">
<path fill-rule="evenodd" clip-rule="evenodd" d="M10 2C7.79086 2 6 3.79086 6 6V11C6 13.2091 7.79086 15 10 15C12.2091 15 14 13.2091 14 11V6C14 3.79086 12.2091 2 10 2ZM4 11C4 10.4477 3.55228 10 3 10C2.44772 10 2 10.4477 2 11C2 15.4183 5.58171 19 10 19C14.4183 19 18 15.4183 18 11C18 10.4477 17.5523 10 17 10C16.4477 10 16 10.4477 16 11C16 14.3137 13.3137 17 10 17C6.68628 17 4 14.3137 4 11Z" fill="#735CE6"/>
</svg>
