<svg width="24" height="24" viewBox="0 0 24 24" fill="none" xmlns="http://www.w3.org/2000/svg">
<path fill-rule="evenodd" clip-rule="evenodd" d="M12 3C9.51472 3 7.5 5.01472 7.5 7.5V12.5C7.5 14.9853 9.51472 17 12 17C14.4853 17 16.5 14.9853 16.5 12.5V7.5C16.5 5.01472 14.4853 3 12 3ZM9.5 7.5C9.5 6.11929 10.6193 5 12 5C13.3807 5 14.5 6.11929 14.5 7.5V12.5C14.5 13.8807 13.3807 15 12 15C10.6193 15 9.5 13.8807 9.5 12.5V7.5ZM6 13C6 12.4477 5.55228 12 5 12C4.44772 12 4 12.4477 4 13C4 17.4183 7.58171 21 12 21C16.4183 21 20 17.4183 20 13C20 12.4477 19.5523 12 19 12C18.4477 12 18 12.4477 18 13C18 16.3137 15.3137 19 12 19C8.68628 19 6 16.3137 6 13Z" fill="#35394D"/>
</svg>
