<svg width="24" height="24" viewBox="0 0 24 24" fill="none" xmlns="http://www.w3.org/2000/svg">
<path fill-rule="evenodd" clip-rule="evenodd" d="M12 2C6.47715 2 2 6.47715 2 12C2 17.5228 6.47715 22 12 22C12.2279 22 12.454 21.9924 12.678 21.9774L12.3335 21.6693L12.3235 21.6604L12.3235 21.6603C11.1933 20.6221 10.1272 19.4214 9.40053 17.9074C8.95474 16.9786 8.64631 15.9519 8.51765 14.7996C7.62528 14.4179 7 13.532 7 12.5C7 11.1193 8.11929 10 9.5 10C10.8807 10 12 11.1193 12 12.5C12 13.5134 11.397 14.386 10.5302 14.7786C10.6463 15.6308 10.8836 16.3752 11.2036 17.042C11.7769 18.2365 12.6417 19.2362 13.6716 20.1829L15.1411 21.4967C19.1252 20.1797 22 16.4256 22 12C22 6.47715 17.5228 2 12 2Z" fill="#FF9415"/>
</svg>
