<svg width="20" height="20" viewBox="0 0 20 20" fill="none" xmlns="http://www.w3.org/2000/svg">
<path fill-rule="evenodd" clip-rule="evenodd" d="M10.0001 4.25C7.43779 4.25 5.18523 5.63254 3.6289 6.92257C2.8401 7.57641 2.20361 8.22852 1.76404 8.71715C1.54382 8.96195 1.37188 9.16698 1.25381 9.31241C1.19474 9.38515 1.14907 9.44308 1.1175 9.48373C1.10171 9.50405 1.08944 9.52006 1.08077 9.53145L1.07048 9.54504L1.06738 9.54916L1.06634 9.55054L1.06595 9.55106C1.0658 9.55127 1.06565 9.55147 1.66675 10L1.06565 9.55147C0.867114 9.81753 0.867114 10.1825 1.06565 10.4485L1.66675 10C1.06565 10.4485 1.0658 10.4487 1.06595 10.4489L1.06634 10.4495L1.06738 10.4508L1.07048 10.455L1.08077 10.4685C1.08944 10.4799 1.10171 10.4959 1.1175 10.5163C1.14907 10.5569 1.19474 10.6148 1.25381 10.6876C1.37188 10.833 1.54382 11.0381 1.76404 11.2829C2.20361 11.7715 2.8401 12.4236 3.6289 13.0774C5.18523 14.3675 7.43779 15.75 10.0001 15.75C12.5624 15.75 14.8149 14.3675 16.3713 13.0774C17.1601 12.4236 17.7966 11.7715 18.2361 11.2829C18.4563 11.0381 18.6283 10.833 18.7464 10.6876C18.8054 10.6148 18.8511 10.5569 18.8827 10.5163C18.8985 10.4959 18.9107 10.4799 18.9194 10.4685L18.9297 10.455L18.9328 10.4508L18.9338 10.4495L18.9342 10.4489C18.9344 10.4487 18.9345 10.4485 18.3334 10L18.9345 10.4485C19.133 10.1825 19.133 9.81753 18.9345 9.55147L18.3334 10C18.9345 9.55147 18.9344 9.55127 18.9342 9.55106L18.9338 9.55054L18.9328 9.54916L18.9297 9.54504L18.9194 9.53145C18.9107 9.52006 18.8985 9.50405 18.8827 9.48373C18.8511 9.44308 18.8054 9.38515 18.7464 9.31241C18.6283 9.16698 18.4563 8.96195 18.2361 8.71715C17.7966 8.22852 17.1601 7.57641 16.3713 6.92257C14.8149 5.63254 12.5624 4.25 10.0001 4.25ZM2.8792 10.2796C2.78768 10.1779 2.70565 10.0841 2.63363 10C2.70565 9.9159 2.78768 9.82208 2.8792 9.72035C3.28301 9.27148 3.86691 8.67359 4.58615 8.07743C6.04589 6.86746 7.95999 5.75 10.0001 5.75C12.0402 5.75 13.9543 6.86746 15.414 8.07743C16.1332 8.67359 16.7172 9.27148 17.121 9.72035C17.2125 9.82208 17.2945 9.9159 17.3665 10C17.2945 10.0841 17.2125 10.1779 17.121 10.2796C16.7172 10.7285 16.1332 11.3264 15.414 11.9226C13.9543 13.1325 12.0402 14.25 10.0001 14.25C7.95999 14.25 6.04589 13.1325 4.58615 11.9226C3.86691 11.3264 3.28301 10.7285 2.8792 10.2796ZM10.0001 7.16666C8.43528 7.16666 7.16675 8.4352 7.16675 10C7.16675 11.5648 8.43528 12.8333 10.0001 12.8333C11.5649 12.8333 12.8334 11.5648 12.8334 10C12.8334 8.4352 11.5649 7.16666 10.0001 7.16666ZM8.66675 10C8.66675 9.26363 9.26371 8.66666 10.0001 8.66666C10.7365 8.66666 11.3334 9.26363 11.3334 10C11.3334 10.7364 10.7365 11.3333 10.0001 11.3333C9.26371 11.3333 8.66675 10.7364 8.66675 10Z" fill="black"/>
</svg>
