<svg width="16" height="16" viewBox="0 0 16 16" fill="none" xmlns="http://www.w3.org/2000/svg">
<g clip-path="url(#clip0_2613_5605)">
<path d="M8 14.6667C9.84093 14.6667 11.5076 13.9205 12.714 12.714C13.9205 11.5076 14.6667 9.84093 14.6667 7.99999C14.6667 6.15906 13.9205 4.49239 12.714 3.28595C11.5076 2.07952 9.84093 1.33333 8 1.33333C6.15907 1.33333 4.4924 2.07952 3.28595 3.28595C2.07953 4.49239 1.33333 6.15906 1.33333 7.99999C1.33333 9.84093 2.07953 11.5076 3.28595 12.714C4.4924 13.9205 6.15907 14.6667 8 14.6667Z" stroke="#999999" stroke-width="1.33333" stroke-linejoin="round"/>
<path d="M8 9.5416V8.20827C9.10457 8.20827 10 7.31283 10 6.20827C10 5.1037 9.10457 4.20827 8 4.20827C6.89543 4.20827 6 5.1037 6 6.20827" stroke="#999999" stroke-width="1.33333" stroke-linecap="round" stroke-linejoin="round"/>
<path fill-rule="evenodd" clip-rule="evenodd" d="M8 12.5416C8.46023 12.5416 8.83333 12.1685 8.83333 11.7083C8.83333 11.248 8.46023 10.8749 8 10.8749C7.53977 10.8749 7.16667 11.248 7.16667 11.7083C7.16667 12.1685 7.53977 12.5416 8 12.5416Z" fill="#999999"/>
</g>
<defs>
<clipPath id="clip0_2613_5605">
<rect width="16" height="16" fill="white"/>
</clipPath>
</defs>
</svg>
