<svg width="20" height="20" viewBox="0 0 20 20" fill="none" xmlns="http://www.w3.org/2000/svg">
<path d="M10 1.25C5.16797 1.25 1.25 5.16797 1.25 10C1.25 14.832 5.16797 18.75 10 18.75C14.832 18.75 18.75 14.832 18.75 10C18.75 5.16797 14.832 1.25 10 1.25Z" fill="#7366FF"/>
<path d="M11.6406 7.95117L9.94141 13.8379C9.84766 14.1738 9.80078 14.3965 9.80078 14.5C9.80078 14.5605 9.82617 14.6172 9.875 14.6699C9.92383 14.7227 9.97656 14.748 10.0332 14.748C10.127 14.748 10.2207 14.707 10.3145 14.623C10.5625 14.418 10.8613 14.0488 11.209 13.5137L11.4902 13.6797C10.6562 15.1328 9.77148 15.8594 8.83203 15.8594C8.47266 15.8594 8.1875 15.7578 7.97461 15.5566C7.76172 15.3555 7.65625 15.0996 7.65625 14.791C7.65625 14.5859 7.70313 14.3281 7.79688 14.0117L8.94727 10.0527C9.05859 9.67188 9.11328 9.38477 9.11328 9.19141C9.11328 9.07031 9.06055 8.96289 8.95508 8.86914C8.84961 8.77539 8.70703 8.72852 8.52539 8.72852C8.44336 8.72852 8.34375 8.73047 8.22656 8.73633L8.33398 8.4043L11.1406 7.94922H11.6406V7.95117ZM11.9883 6.21875C11.75 6.45703 11.4629 6.57422 11.127 6.57422C10.7949 6.57422 10.5117 6.45508 10.2734 6.21875C10.0352 5.98047 9.91797 5.69336 9.91797 5.35742C9.91797 5.02148 10.0352 4.73437 10.2695 4.49609C10.5039 4.25977 10.7891 4.14062 11.127 4.14062C11.4688 4.14062 11.7578 4.25977 11.9922 4.49609C12.2266 4.73437 12.3438 5.02148 12.3438 5.35742C12.3438 5.69336 12.2246 5.98047 11.9883 6.21875Z" fill="white"/>
</svg>
