<svg width="20" height="20" viewBox="0 0 20 20" fill="none" xmlns="http://www.w3.org/2000/svg">
<path fill-rule="evenodd" clip-rule="evenodd" d="M5.66287 4.33709C5.29676 3.97097 4.70316 3.97097 4.33705 4.33709C3.97093 4.7032 3.97093 5.2968 4.33705 5.66291L8.67413 10L4.33705 14.3371C3.97093 14.7032 3.97093 15.2968 4.33705 15.6629C4.70316 16.029 5.29675 16.029 5.66287 15.6629L9.99996 11.3258L14.337 15.6629C14.7032 16.029 15.2968 16.029 15.6629 15.6629C16.029 15.2968 16.029 14.7032 15.6629 14.3371L11.3258 10L15.6629 5.66291C16.029 5.2968 16.029 4.7032 15.6629 4.33709C15.2968 3.97097 14.7032 3.97097 14.337 4.33709L9.99996 8.67417L5.66287 4.33709Z" fill="#F7F8FA"/>
</svg>
