<svg width="28" height="28" viewBox="0 0 28 28" fill="none" xmlns="http://www.w3.org/2000/svg">
<path d="M2 14C2 7.37258 7.37258 2 14 2C20.6274 2 26 7.37258 26 14C26 20.6274 20.6274 26 14 26C7.37258 26 2 20.6274 2 14Z" fill="#9580FF"/>
<path d="M12.6745 11.5604L17.8665 9.48356C18.2746 9.3203 18.6797 9.72534 18.5164 10.1335L16.4396 15.3255C16.2363 15.8337 15.8336 16.2364 15.3254 16.4397L10.1334 18.5165C9.72526 18.6797 9.32022 18.2747 9.48348 17.8665L11.5603 12.6745C11.7636 12.1663 12.1663 11.7636 12.6745 11.5604Z" fill="white"/>
</svg>
