<svg width="28" height="28" viewBox="0 0 28 28" fill="none" xmlns="http://www.w3.org/2000/svg">
<path opacity="0.4" d="M2 14C2 7.37258 7.37258 2 14 2C20.6274 2 26 7.37258 26 14C26 20.6274 20.6274 26 14 26C7.37258 26 2 20.6274 2 14Z" fill="white"/>
<path d="M12.6745 11.5601L17.8665 9.48332C18.2746 9.32006 18.6797 9.7251 18.5164 10.1333L16.4396 15.3253C16.2363 15.8335 15.8336 16.2362 15.3254 16.4394L10.1334 18.5162C9.72526 18.6795 9.32022 18.2745 9.48348 17.8663L11.5603 12.6743C11.7636 12.1661 12.1663 11.7634 12.6745 11.5601Z" fill="white"/>
</svg>
