<svg width="40" height="40" viewBox="0 0 40 40" fill="none" xmlns="http://www.w3.org/2000/svg">
<g opacity="0.8" filter="url(#filter0_i_2310_9971)">
<path d="M37 24.3966V15.6034C37 14.4169 37 13.8237 36.7505 13.4755C36.5328 13.1716 36.1975 12.9731 35.8263 12.9284C35.401 12.8771 34.8809 13.1623 33.8407 13.7329L27.1074 17.4263L27.1074 17.4263C26.7045 17.6473 26.503 17.7578 26.3563 17.9158C26.2264 18.0556 26.1281 18.2217 26.068 18.4027C26 18.6074 26 18.8372 26 19.2967V20.7033C26 21.1628 26 21.3926 26.068 21.5973C26.1281 21.7783 26.2264 21.9444 26.3563 22.0842C26.503 22.2422 26.7045 22.3527 27.1074 22.5737L33.8407 26.2671C34.8809 26.8377 35.401 27.1229 35.8263 27.0716C36.1975 27.0269 36.5328 26.8284 36.7505 26.5245C37 26.1763 37 25.5831 37 24.3966Z" fill="url(#paint0_linear_2310_9971)"/>
</g>
<rect x="5" y="7" width="26" height="26" rx="6" fill="url(#paint1_linear_2310_9971)"/>
<path d="M22.4396 18.9077L16.0979 14.4686C15.2142 13.85 14 14.4822 14 15.5609V24.4391C14 25.5178 15.2142 26.15 16.098 25.5314L22.4396 21.0923C23.1978 20.5615 23.1978 19.4385 22.4396 18.9077Z" fill="white"/>
<defs>
<filter id="filter0_i_2310_9971" x="26" y="12.9224" width="11" height="14.1553" filterUnits="userSpaceOnUse" color-interpolation-filters="sRGB">
<feFlood flood-opacity="0" result="BackgroundImageFix"/>
<feBlend mode="normal" in="SourceGraphic" in2="BackgroundImageFix" result="shape"/>
<feColorMatrix in="SourceAlpha" type="matrix" values="0 0 0 0 0 0 0 0 0 0 0 0 0 0 0 0 0 0 127 0" result="hardAlpha"/>
<feOffset dy="-0.333333"/>
<feComposite in2="hardAlpha" operator="arithmetic" k2="-1" k3="1"/>
<feColorMatrix type="matrix" values="0 0 0 0 0.0894445 0 0 0 0 0.528267 0 0 0 0 0.933333 0 0 0 1 0"/>
<feBlend mode="normal" in2="shape" result="effect1_innerShadow_2310_9971"/>
</filter>
<linearGradient id="paint0_linear_2310_9971" x1="37" y1="20" x2="27" y2="20" gradientUnits="userSpaceOnUse">
<stop stop-color="#FFB067"/>
<stop offset="1" stop-color="#FFB067" stop-opacity="0.5"/>
</linearGradient>
<linearGradient id="paint1_linear_2310_9971" x1="18" y1="7" x2="18" y2="33" gradientUnits="userSpaceOnUse">
<stop stop-color="#FFDC97"/>
<stop offset="1" stop-color="#FFAA47"/>
</linearGradient>
</defs>
</svg>
