<svg width="48" height="48" viewBox="0 0 48 48" fill="none" xmlns="http://www.w3.org/2000/svg">
<g clip-path="url(#clip0_5842_2733)">
<circle cx="24" cy="24" r="24" fill="#FFAF48"/>
<path fill-rule="evenodd" clip-rule="evenodd" d="M30.5 13C31.0523 13 31.5 13.4477 31.5 14V17.5858L32.2929 16.7929C32.6834 16.4024 33.3166 16.4024 33.7071 16.7929C34.0976 17.1834 34.0976 17.8166 33.7071 18.2071L31.2071 20.7071C30.8166 21.0976 30.1834 21.0976 29.7929 20.7071L27.2929 18.2071C26.9024 17.8166 26.9024 17.1834 27.2929 16.7929C27.6834 16.4024 28.3166 16.4024 28.7071 16.7929L29.5 17.5858V14C29.5 13.4477 29.9477 13 30.5 13ZM14 29.5037C14 29.5014 14 29.4991 14 29.4968V17C14 15.3431 15.3432 14 17 14H24C24.5523 14 25 14.4477 25 15C25 15.5523 24.5523 16 24 16H17C16.4477 16 16 16.4477 16 17V27.2268L19.6708 23.8619L19.6708 23.8618C20.4167 23.1781 21.5557 23.1592 22.3239 23.8177L25.5246 26.5612L27.6796 24.4061C28.3834 23.7024 29.4976 23.6232 30.2938 24.2204L30.2939 24.2204L32 25.5V24C32 23.4477 32.4477 23 33 23C33.5523 23 34 23.4477 34 24V27.4899C34.0001 27.4971 34.0001 27.5044 34 27.5117V31C34 32.6569 32.6569 34 31 34H17C15.3432 34 14 32.6569 14 31V29.5037ZM32 28L29.0939 25.8204L29.0939 25.8204L29.0939 25.8204L29.0939 25.8204L27.0476 27.8666L28.6508 29.2407C29.0701 29.6002 29.1187 30.2315 28.7593 30.6508C28.3998 31.0701 27.7685 31.1187 27.3492 30.7593L21.0223 25.3362L16 29.9399V31C16 31.5523 16.4477 32 17 32H31C31.5523 32 32 31.5523 32 31V28Z" fill="white"/>
</g>
<defs>
<clipPath id="clip0_5842_2733">
<rect width="48" height="48" fill="white"/>
</clipPath>
</defs>
</svg>
