<svg width="48" height="48" viewBox="0 0 48 48" fill="none" xmlns="http://www.w3.org/2000/svg">
<g clip-path="url(#clip0_5842_2675)">
<circle cx="24" cy="24" r="24" fill="#45C3F4"/>
<path fill-rule="evenodd" clip-rule="evenodd" d="M15 24C15 19.0294 19.0294 15 24 15C24.5523 15 25 14.5523 25 14C25 13.4477 24.5523 13 24 13C17.9249 13 13 17.9249 13 24C13 30.0751 17.9249 35 24 35C30.0751 35 35 30.0751 35 24C35 23.4477 34.5523 23 34 23C33.4477 23 33 23.4477 33 24C33 28.9706 28.9706 33 24 33C19.0294 33 15 28.9706 15 24ZM30.5 13C31.0523 13 31.5 13.4477 31.5 14V17.5858L32.2929 16.7929C32.6834 16.4024 33.3166 16.4024 33.7071 16.7929C34.0976 17.1834 34.0976 17.8166 33.7071 18.2071L31.2071 20.7071C30.8166 21.0976 30.1834 21.0976 29.7929 20.7071L27.2929 18.2071C26.9024 17.8166 26.9024 17.1834 27.2929 16.7929C27.6834 16.4024 28.3166 16.4024 28.7071 16.7929L29.5 17.5858V14C29.5 13.4477 29.9477 13 30.5 13ZM21 20.9048V27.4952C21 28.466 22.0928 29.035 22.8882 28.4783L27.5956 25.1831C28.2781 24.7054 28.2781 23.6946 27.5956 23.2169L22.8882 19.9217C22.0928 19.365 21 19.934 21 20.9048Z" fill="white"/>
</g>
<defs>
<clipPath id="clip0_5842_2675">
<rect width="48" height="48" fill="white"/>
</clipPath>
</defs>
</svg>
