<svg width="56" height="56" viewBox="0 0 56 56" fill="none" xmlns="http://www.w3.org/2000/svg">
<g clip-path="url(#clip0_2324_16153)">
<circle cx="28" cy="28" r="28" fill="#FFB75B"/>
<path fill-rule="evenodd" clip-rule="evenodd" d="M24.1112 18.2222V25.5556H20.6976C20.1532 25.5556 19.8805 26.2138 20.2655 26.5988L26.9136 33.2469C27.3909 33.7242 28.1648 33.7242 28.6421 33.2469L35.2902 26.5988C35.6751 26.2138 35.4025 25.5556 34.858 25.5556H31.4445V18.2222C31.4445 17.5472 30.8973 17 30.2223 17H25.3334C24.6584 17 24.1112 17.5472 24.1112 18.2222ZM20.4444 36.5556C19.7694 36.5556 19.2222 37.1028 19.2222 37.7778C19.2222 38.4529 19.7694 39.0001 20.4444 39.0001H35.1111C35.7861 39.0001 36.3333 38.4529 36.3333 37.7778C36.3333 37.1028 35.7861 36.5556 35.1111 36.5556H20.4444Z" fill="white"/>
</g>
<defs>
<clipPath id="clip0_2324_16153">
<rect width="56" height="56" fill="white"/>
</clipPath>
</defs>
</svg>
