<svg width="28" height="32" viewBox="0 0 28 32" fill="none" xmlns="http://www.w3.org/2000/svg">
<g filter="url(#filter0_d_2310_9493)">
<mask id="path-1-outside-1_2310_9493" maskUnits="userSpaceOnUse" x="5" y="4" width="16" height="24" fill="black">
<rect fill="white" x="5" y="4" width="16" height="24"/>
<path fill-rule="evenodd" clip-rule="evenodd" d="M14.8787 5.87868C16.0503 4.70711 17.9497 4.70711 19.1213 5.87868C20.2929 7.05025 20.2929 8.94975 19.1213 10.1213L13.2426 16L19.1213 21.8787C20.2929 23.0503 20.2929 24.9497 19.1213 26.1213C17.9497 27.2929 16.0503 27.2929 14.8787 26.1213L6.87868 18.1213C5.70711 16.9497 5.70711 15.0503 6.87868 13.8787L14.8787 5.87868Z"/>
</mask>
<path fill-rule="evenodd" clip-rule="evenodd" d="M14.8787 5.87868C16.0503 4.70711 17.9497 4.70711 19.1213 5.87868C20.2929 7.05025 20.2929 8.94975 19.1213 10.1213L13.2426 16L19.1213 21.8787C20.2929 23.0503 20.2929 24.9497 19.1213 26.1213C17.9497 27.2929 16.0503 27.2929 14.8787 26.1213L6.87868 18.1213C5.70711 16.9497 5.70711 15.0503 6.87868 13.8787L14.8787 5.87868Z" fill="#9580FF"/>
<path d="M19.1213 5.87868L18.4142 6.58579L18.4142 6.58579L19.1213 5.87868ZM14.8787 5.87868L15.5858 6.58579L15.5858 6.58579L14.8787 5.87868ZM19.1213 10.1213L18.4142 9.41421L18.4142 9.41421L19.1213 10.1213ZM13.2426 16L12.5355 16.7071L11.8284 16L12.5355 15.2929L13.2426 16ZM19.1213 21.8787L19.8284 21.1716L19.8284 21.1716L19.1213 21.8787ZM19.1213 26.1213L19.8284 26.8284L19.8284 26.8284L19.1213 26.1213ZM14.8787 26.1213L14.1716 26.8284L14.8787 26.1213ZM6.87868 18.1213L6.17157 18.8284H6.17157L6.87868 18.1213ZM6.87868 13.8787L6.17157 13.1716H6.17157L6.87868 13.8787ZM18.4142 6.58579C17.6332 5.80474 16.3668 5.80474 15.5858 6.58579L14.1716 5.17157C15.7337 3.60948 18.2663 3.60948 19.8284 5.17157L18.4142 6.58579ZM18.4142 9.41421C19.1953 8.63317 19.1953 7.36683 18.4142 6.58579L19.8284 5.17157C21.3905 6.73367 21.3905 9.26633 19.8284 10.8284L18.4142 9.41421ZM12.5355 15.2929L18.4142 9.41421L19.8284 10.8284L13.9497 16.7071L12.5355 15.2929ZM13.9497 15.2929L19.8284 21.1716L18.4142 22.5858L12.5355 16.7071L13.9497 15.2929ZM19.8284 21.1716C21.3905 22.7337 21.3905 25.2663 19.8284 26.8284L18.4142 25.4142C19.1953 24.6332 19.1953 23.3668 18.4142 22.5858L19.8284 21.1716ZM19.8284 26.8284C18.2663 28.3905 15.7337 28.3905 14.1716 26.8284L15.5858 25.4142C16.3668 26.1953 17.6332 26.1953 18.4142 25.4142L19.8284 26.8284ZM14.1716 26.8284L6.17157 18.8284L7.58579 17.4142L15.5858 25.4142L14.1716 26.8284ZM7.58579 14.5858C6.80474 15.3668 6.80474 16.6332 7.58579 17.4142L6.17157 18.8284C4.60948 17.2663 4.60948 14.7337 6.17157 13.1716L7.58579 14.5858ZM15.5858 6.58579L7.58579 14.5858L6.17157 13.1716L14.1716 5.17157L15.5858 6.58579Z" fill="white" mask="url(#path-1-outside-1_2310_9493)"/>
</g>
<defs>
<filter id="filter0_d_2310_9493" x="1" y="0" width="24" height="32" filterUnits="userSpaceOnUse" color-interpolation-filters="sRGB">
<feFlood flood-opacity="0" result="BackgroundImageFix"/>
<feColorMatrix in="SourceAlpha" type="matrix" values="0 0 0 0 0 0 0 0 0 0 0 0 0 0 0 0 0 0 127 0" result="hardAlpha"/>
<feOffset/>
<feGaussianBlur stdDeviation="2"/>
<feComposite in2="hardAlpha" operator="out"/>
<feColorMatrix type="matrix" values="0 0 0 0 1 0 0 0 0 1 0 0 0 0 1 0 0 0 1 0"/>
<feBlend mode="normal" in2="BackgroundImageFix" result="effect1_dropShadow_2310_9493"/>
<feBlend mode="normal" in="SourceGraphic" in2="effect1_dropShadow_2310_9493" result="shape"/>
</filter>
</defs>
</svg>
