<svg width="28" height="32" viewBox="0 0 28 32" fill="none" xmlns="http://www.w3.org/2000/svg">
<g filter="url(#filter0_d_2310_9489)">
<mask id="path-1-outside-1_2310_9489" maskUnits="userSpaceOnUse" x="7" y="4" width="16" height="24" fill="black">
<rect fill="white" x="7" y="4" width="16" height="24"/>
<path fill-rule="evenodd" clip-rule="evenodd" d="M13.1213 5.87868C11.9497 4.70711 10.0503 4.70711 8.87868 5.87868C7.70711 7.05025 7.70711 8.94975 8.87868 10.1213L14.7574 16L8.87868 21.8787C7.70711 23.0503 7.70711 24.9497 8.87868 26.1213C10.0503 27.2929 11.9497 27.2929 13.1213 26.1213L21.1213 18.1213C22.2929 16.9497 22.2929 15.0503 21.1213 13.8787L13.1213 5.87868Z"/>
</mask>
<path fill-rule="evenodd" clip-rule="evenodd" d="M13.1213 5.87868C11.9497 4.70711 10.0503 4.70711 8.87868 5.87868C7.70711 7.05025 7.70711 8.94975 8.87868 10.1213L14.7574 16L8.87868 21.8787C7.70711 23.0503 7.70711 24.9497 8.87868 26.1213C10.0503 27.2929 11.9497 27.2929 13.1213 26.1213L21.1213 18.1213C22.2929 16.9497 22.2929 15.0503 21.1213 13.8787L13.1213 5.87868Z" fill="#9580FF"/>
<path d="M8.87868 5.87868L9.58579 6.58579L9.58579 6.58579L8.87868 5.87868ZM13.1213 5.87868L12.4142 6.58579L12.4142 6.58579L13.1213 5.87868ZM8.87868 10.1213L9.58579 9.41421L9.58579 9.41421L8.87868 10.1213ZM14.7574 16L15.4645 16.7071L16.1716 16L15.4645 15.2929L14.7574 16ZM8.87868 21.8787L8.17157 21.1716L8.17157 21.1716L8.87868 21.8787ZM8.87868 26.1213L8.17157 26.8284L8.17157 26.8284L8.87868 26.1213ZM13.1213 26.1213L13.8284 26.8284L13.1213 26.1213ZM21.1213 18.1213L21.8284 18.8284H21.8284L21.1213 18.1213ZM21.1213 13.8787L21.8284 13.1716H21.8284L21.1213 13.8787ZM9.58579 6.58579C10.3668 5.80474 11.6332 5.80474 12.4142 6.58579L13.8284 5.17157C12.2663 3.60948 9.73367 3.60948 8.17157 5.17157L9.58579 6.58579ZM9.58579 9.41421C8.80474 8.63317 8.80474 7.36683 9.58579 6.58579L8.17157 5.17157C6.60948 6.73367 6.60948 9.26633 8.17157 10.8284L9.58579 9.41421ZM15.4645 15.2929L9.58579 9.41421L8.17157 10.8284L14.0503 16.7071L15.4645 15.2929ZM14.0503 15.2929L8.17157 21.1716L9.58579 22.5858L15.4645 16.7071L14.0503 15.2929ZM8.17157 21.1716C6.60948 22.7337 6.60948 25.2663 8.17157 26.8284L9.58579 25.4142C8.80474 24.6332 8.80474 23.3668 9.58579 22.5858L8.17157 21.1716ZM8.17157 26.8284C9.73367 28.3905 12.2663 28.3905 13.8284 26.8284L12.4142 25.4142C11.6332 26.1953 10.3668 26.1953 9.58579 25.4142L8.17157 26.8284ZM13.8284 26.8284L21.8284 18.8284L20.4142 17.4142L12.4142 25.4142L13.8284 26.8284ZM20.4142 14.5858C21.1953 15.3668 21.1953 16.6332 20.4142 17.4142L21.8284 18.8284C23.3905 17.2663 23.3905 14.7337 21.8284 13.1716L20.4142 14.5858ZM12.4142 6.58579L20.4142 14.5858L21.8284 13.1716L13.8284 5.17157L12.4142 6.58579Z" fill="white" mask="url(#path-1-outside-1_2310_9489)"/>
</g>
<defs>
<filter id="filter0_d_2310_9489" x="3" y="0" width="24" height="32" filterUnits="userSpaceOnUse" color-interpolation-filters="sRGB">
<feFlood flood-opacity="0" result="BackgroundImageFix"/>
<feColorMatrix in="SourceAlpha" type="matrix" values="0 0 0 0 0 0 0 0 0 0 0 0 0 0 0 0 0 0 127 0" result="hardAlpha"/>
<feOffset/>
<feGaussianBlur stdDeviation="2"/>
<feComposite in2="hardAlpha" operator="out"/>
<feColorMatrix type="matrix" values="0 0 0 0 1 0 0 0 0 1 0 0 0 0 1 0 0 0 1 0"/>
<feBlend mode="normal" in2="BackgroundImageFix" result="effect1_dropShadow_2310_9489"/>
<feBlend mode="normal" in="SourceGraphic" in2="effect1_dropShadow_2310_9489" result="shape"/>
</filter>
</defs>
</svg>
