<svg width="24" height="24" viewBox="0 0 24 24" fill="none" xmlns="http://www.w3.org/2000/svg">
<mask id="path-1-inside-1_1732_534" fill="white">
<path fill-rule="evenodd" clip-rule="evenodd" d="M5 3C3.34315 3 2 4.34315 2 6V16C2 17.6569 3.34315 19 5 19H10L11.584 21.376C11.7819 21.6728 12.2181 21.6728 12.416 21.376L14 19H19C20.6569 19 22 17.6569 22 16V6C22 4.34315 20.6569 3 19 3H5Z"/>
</mask>
<path d="M10 19L11.6641 17.8906C11.2932 17.3342 10.6687 17 10 17V19ZM11.584 21.376L9.91987 22.4854L9.91988 22.4854L11.584 21.376ZM12.416 21.376L10.7519 20.2666H10.7519L12.416 21.376ZM14 19V17C13.3313 17 12.7068 17.3342 12.3359 17.8906L14 19ZM4 6C4 5.44772 4.44772 5 5 5V1C2.23858 1 0 3.23858 0 6H4ZM4 16V6H0V16H4ZM5 17C4.44772 17 4 16.5523 4 16H0C0 18.7614 2.23858 21 5 21V17ZM10 17H5V21H10V17ZM13.2481 20.2666L11.6641 17.8906L8.3359 20.1094L9.91987 22.4854L13.2481 20.2666ZM10.7519 20.2666C11.3457 19.376 12.6543 19.376 13.2481 20.2666L9.91988 22.4854C10.9094 23.9697 13.0906 23.9697 14.0801 22.4854L10.7519 20.2666ZM12.3359 17.8906L10.7519 20.2666L14.0801 22.4854L15.6641 20.1094L12.3359 17.8906ZM19 17H14V21H19V17ZM20 16C20 16.5523 19.5523 17 19 17V21C21.7614 21 24 18.7614 24 16H20ZM20 6V16H24V6H20ZM19 5C19.5523 5 20 5.44772 20 6H24C24 3.23858 21.7614 1 19 1V5ZM5 5H19V1H5V5Z" fill="#666A80" mask="url(#path-1-inside-1_1732_534)"/>
<circle cx="7" cy="11" r="1.25" fill="#666A80"/>
<circle cx="12" cy="11" r="1.25" fill="#666A80"/>
<circle cx="17" cy="11" r="1.25" fill="#666A80"/>
</svg>
