<svg width="32" height="16" viewBox="0 0 32 16" fill="none" xmlns="http://www.w3.org/2000/svg">
<path fill-rule="evenodd" clip-rule="evenodd" d="M15 2C15 1.44772 15.4477 1 16 1C16.5523 1 17 1.44772 17 2V14C17 14.5523 16.5523 15 16 15C15.4477 15 15 14.5523 15 14V2ZM11 4.5C11 3.94772 11.4477 3.5 12 3.5C12.5523 3.5 13 3.94772 13 4.5V11.5C13 12.0523 12.5523 12.5 12 12.5C11.4477 12.5 11 12.0523 11 11.5V4.5ZM3 7C3 6.44772 3.44772 6 4 6C4.55228 6 5 6.44772 5 7V9C5 9.55229 4.55228 10 4 10C3.44772 10 3 9.55229 3 9V7ZM8 5C7.44772 5 7 5.44772 7 6V10C7 10.5523 7.44772 11 8 11C8.55228 11 9 10.5523 9 10V6C9 5.44772 8.55228 5 8 5ZM20 3.5C19.4477 3.5 19 3.94772 19 4.5V11.5C19 12.0523 19.4477 12.5 20 12.5C20.5523 12.5 21 12.0523 21 11.5V4.5C21 3.94772 20.5523 3.5 20 3.5ZM23 6C23 5.44772 23.4477 5 24 5C24.5523 5 25 5.44772 25 6V10C25 10.5523 24.5523 11 24 11C23.4477 11 23 10.5523 23 10V6ZM28 6C27.4477 6 27 6.44772 27 7V9C27 9.55229 27.4477 10 28 10C28.5523 10 29 9.55229 29 9V7C29 6.44772 28.5523 6 28 6Z" fill="#666A80"/>
</svg>
