<svg width="54" height="54" viewBox="0 0 54 54" fill="none" xmlns="http://www.w3.org/2000/svg">
<rect width="54" height="54" rx="8" fill="white"/>
<path fill-rule="evenodd" clip-rule="evenodd" d="M27 14.25C27.4142 14.25 27.75 14.5858 27.75 15V26.1893L29.4697 24.4697C29.7626 24.1768 30.2374 24.1768 30.5303 24.4697C30.8232 24.7626 30.8232 25.2374 30.5303 25.5303L27.5303 28.5303C27.2374 28.8232 26.7626 28.8232 26.4697 28.5303L23.4697 25.5303C23.1768 25.2374 23.1768 24.7626 23.4697 24.4697C23.7626 24.1768 24.2374 24.1768 24.5303 24.4697L26.25 26.1893V15C26.25 14.5858 26.5858 14.25 27 14.25ZM20 19.75C19.3096 19.75 18.75 20.3096 18.75 21V33C18.75 33.6904 19.3096 34.25 20 34.25H34C34.6904 34.25 35.25 33.6904 35.25 33V21C35.25 20.3096 34.6904 19.75 34 19.75H32C31.5858 19.75 31.25 19.4142 31.25 19C31.25 18.5858 31.5858 18.25 32 18.25H34C35.5188 18.25 36.75 19.4812 36.75 21V33C36.75 34.5188 35.5188 35.75 34 35.75H20C18.4812 35.75 17.25 34.5188 17.25 33V21C17.25 19.4812 18.4812 18.25 20 18.25H22C22.4142 18.25 22.75 18.5858 22.75 19C22.75 19.4142 22.4142 19.75 22 19.75H20Z" fill="#35394D"/>
</svg>
